<svg width="312" height="312" viewBox="0 0 312 312" fill="none" xmlns="http://www.w3.org/2000/svg">
<g filter="url(#filter0_d_225_2)">
<rect x="60" y="60" width="192" height="192" rx="47" fill="black"/>
<mask id="mask0_225_2" style="mask-type:alpha" maskUnits="userSpaceOnUse" x="60" y="60" width="192" height="192">
<rect x="60" y="60" width="192" height="192" rx="47" fill="black"/>
</mask>
<g mask="url(#mask0_225_2)">
<path d="M121 108V114" stroke="#2E2E2E" stroke-width="1.5" stroke-linecap="round"/>
<path d="M118 111H124" stroke="#2E2E2E" stroke-width="1.5" stroke-linecap="round"/>
<path d="M171 88V94" stroke="#2E2E2E" stroke-width="1.5" stroke-linecap="round"/>
<path d="M168 91H174" stroke="#2E2E2E" stroke-width="1.5" stroke-linecap="round"/>
<path d="M215 136V142" stroke="#2E2E2E" stroke-width="1.5" stroke-linecap="round"/>
<path d="M212 139H218" stroke="#2E2E2E" stroke-width="1.5" stroke-linecap="round"/>
<path d="M204 103V109" stroke="#2E2E2E" stroke-width="1.5" stroke-linecap="round"/>
<path d="M201 106H207" stroke="#2E2E2E" stroke-width="1.5" stroke-linecap="round"/>
<g filter="url(#filter1_f_225_2)">
<ellipse cx="156.002" cy="153.583" rx="24.3881" ry="50.5828" stroke="white" stroke-opacity="0.85" stroke-width="5"/>
<g filter="url(#filter2_d_225_2)">
<ellipse cx="156" cy="153.928" rx="24.3881" ry="50.5827" transform="rotate(-60 156 153.928)" stroke="white" stroke-opacity="0.85" stroke-width="5" shape-rendering="crispEdges"/>
</g>
<ellipse cx="156" cy="153.928" rx="24.3881" ry="50.5827" transform="rotate(-120 156 153.928)" stroke="white" stroke-opacity="0.85" stroke-width="5"/>
</g>
<g filter="url(#filter3_f_225_2)">
<circle cx="155.5" cy="153.5" r="6.5" fill="#56F9F4" fill-opacity="0.97"/>
<circle cx="155.5" cy="153.5" r="6.5" stroke="#1F6260" stroke-opacity="0.55" stroke-width="1.5" style="mix-blend-mode:multiply"/>
</g>
<g filter="url(#filter4_f_225_2)">
<circle cx="199" cy="190" r="5" fill="#8F399A"/>
<circle cx="199" cy="190" r="5" stroke="black" stroke-width="2"/>
</g>
<g filter="url(#filter5_f_225_2)">
<circle cx="104" cy="175" r="6" fill="#8F399A" fill-opacity="0.9"/>
<circle cx="104" cy="175" r="5" stroke="black" stroke-width="2"/>
</g>
<g filter="url(#filter6_f_225_2)">
<circle cx="176" cy="110" r="6" fill="#8F399A" fill-opacity="0.9"/>
<circle cx="176" cy="110" r="5" stroke="black" stroke-width="2"/>
</g>
<path d="M72 240.069C101.586 199.978 100.583 185.911 110.612 194.351C120.641 202.791 119.137 228.112 128.163 226.705C137.19 225.298 141.703 203.495 147.72 211.935C153.738 220.375 164.77 239.606 172.793 236.09C180.816 232.573 192.35 197.165 206.892 211.935C221.434 226.705 223.44 256.005 244 234.201" stroke="#56FCF6" stroke-opacity="0.96" stroke-width="2"/>
<path d="M156 190V196" stroke="#A5A0A0" stroke-width="1.5" stroke-linecap="round"/>
<path d="M153 193H159" stroke="#A5A0A0" stroke-width="1.5" stroke-linecap="round"/>
<path d="M177 207V213" stroke="#2E2E2E" stroke-width="1.5" stroke-linecap="round"/>
<path d="M174 210H180" stroke="#2E2E2E" stroke-width="1.5" stroke-linecap="round"/>
<path d="M147 85V91" stroke="white" stroke-width="1.5" stroke-linecap="round"/>
<path d="M144 88H150" stroke="white" stroke-width="1.5" stroke-linecap="round"/>
<path d="M97 136V142" stroke="white" stroke-width="1.5" stroke-linecap="round"/>
<path d="M94 139H100" stroke="white" stroke-width="1.5" stroke-linecap="round"/>
<path d="M191 130V136" stroke="white" stroke-width="1.5" stroke-linecap="round"/>
<path d="M188 133H194" stroke="white" stroke-width="1.5" stroke-linecap="round"/>
<path d="M141 145V151" stroke="#A5A0A0" stroke-width="1.5" stroke-linecap="round"/>
<path d="M138 148H144" stroke="#A5A0A0" stroke-width="1.5" stroke-linecap="round"/>
<path d="M168 160V166" stroke="#A5A0A0" stroke-width="1.5" stroke-linecap="round"/>
<path d="M165 163H171" stroke="#A5A0A0" stroke-width="1.5" stroke-linecap="round"/>
<path d="M88.75 228C88.75 227.034 87.9665 226.25 87 226.25C86.0335 226.25 85.25 227.034 85.25 228L88.75 228ZM88.75 262L88.75 228L85.25 228L85.25 262L88.75 262Z" fill="#D290DB" fill-opacity="0.79"/>
<path d="M83.75 236C83.75 235.034 82.9665 234.25 82 234.25C81.0335 234.25 80.25 235.034 80.25 236L83.75 236ZM83.75 270L83.75 236L80.25 236L80.25 270L83.75 270Z" fill="#D290DB" fill-opacity="0.79"/>
<path d="M78.75 243C78.75 242.034 77.9665 241.25 77 241.25C76.0335 241.25 75.25 242.034 75.25 243L78.75 243ZM78.75 277L78.75 243L75.25 243L75.25 277L78.75 277Z" fill="#D290DB" fill-opacity="0.79"/>
<path d="M93.75 221C93.75 220.034 92.9665 219.25 92 219.25C91.0335 219.25 90.25 220.034 90.25 221L93.75 221ZM93.75 264L93.75 221L90.25 221L90.25 264L93.75 264Z" fill="#D290DB" fill-opacity="0.79"/>
<path d="M98.75 213C98.75 212.034 97.9665 211.25 97 211.25C96.0335 211.25 95.25 212.034 95.25 213L98.75 213ZM98.75 265L98.75 213L95.25 213L95.25 265L98.75 265Z" fill="#D290DB" fill-opacity="0.79"/>
<path d="M103.75 203C103.75 202.034 102.966 201.25 102 201.25C101.033 201.25 100.25 202.034 100.25 203L103.75 203ZM103.75 263L103.75 203L100.25 203L100.25 263L103.75 263Z" fill="#D290DB" fill-opacity="0.79"/>
<path d="M108.75 200C108.75 199.034 107.966 198.25 107 198.25C106.033 198.25 105.25 199.034 105.25 200L108.75 200ZM108.75 261L108.75 200L105.25 200L105.25 261L108.75 261Z" fill="#D290DB" fill-opacity="0.79"/>
<path d="M113.75 207C113.75 206.034 112.966 205.25 112 205.25C111.033 205.25 110.25 206.034 110.25 207L113.75 207ZM113.75 263L113.75 207L110.25 207L110.25 263L113.75 263Z" fill="#D290DB" fill-opacity="0.79"/>
<path d="M118.75 220C118.75 219.034 117.966 218.25 117 218.25C116.033 218.25 115.25 219.034 115.25 220L118.75 220ZM118.75 266L118.75 220L115.25 220L115.25 266L118.75 266Z" fill="#D290DB" fill-opacity="0.79"/>
<path d="M178.75 241C178.75 240.034 177.966 239.25 177 239.25C176.034 239.25 175.25 240.034 175.25 241L178.75 241ZM178.75 275L178.75 241L175.25 241L175.25 275L178.75 275Z" fill="#D290DB" fill-opacity="0.79"/>
<path d="M183.75 236C183.75 235.034 182.966 234.25 182 234.25C181.033 234.25 180.25 235.034 180.25 236L183.75 236ZM183.75 279L183.75 236L180.25 236L180.25 279L183.75 279Z" fill="#D290DB" fill-opacity="0.79"/>
<path d="M188.75 228C188.75 227.034 187.966 226.25 187 226.25C186.033 226.25 185.25 227.034 185.25 228L188.75 228ZM188.75 280L188.75 228L185.25 228L185.25 280L188.75 280Z" fill="#D290DB" fill-opacity="0.79"/>
<path d="M193.75 221C193.75 220.034 192.966 219.25 192 219.25C191.033 219.25 190.25 220.034 190.25 221L193.75 221ZM193.75 281L193.75 221L190.25 221L190.25 281L193.75 281Z" fill="#D290DB" fill-opacity="0.79"/>
<path d="M198.75 218C198.75 217.034 197.966 216.25 197 216.25C196.033 216.25 195.25 217.034 195.25 218L198.75 218ZM198.75 279L198.75 218L195.25 218L195.25 279L198.75 279Z" fill="#D290DB" fill-opacity="0.79"/>
<path d="M203.75 217C203.75 216.034 202.966 215.25 202 215.25C201.033 215.25 200.25 216.034 200.25 217L203.75 217ZM203.75 273L203.75 217L200.25 217L200.25 273L203.75 273Z" fill="#D290DB" fill-opacity="0.79"/>
<path d="M208.75 221C208.75 220.034 207.966 219.25 207 219.25C206.033 219.25 205.25 220.034 205.25 221L208.75 221ZM208.75 267L208.75 221L205.25 221L205.25 267L208.75 267Z" fill="#D290DB" fill-opacity="0.79"/>
<path d="M218.75 237C218.75 236.034 217.966 235.25 217 235.25C216.033 235.25 215.25 236.034 215.25 237L218.75 237ZM218.75 283L218.75 237L215.25 237L215.25 283L218.75 283Z" fill="#D290DB" fill-opacity="0.79"/>
<path d="M213.75 228C213.75 227.034 212.966 226.25 212 226.25C211.033 226.25 210.25 227.034 210.25 228L213.75 228ZM213.75 274L213.75 228L210.25 228L210.25 274L213.75 274Z" fill="#D290DB" fill-opacity="0.79"/>
<path d="M223.75 243C223.75 242.034 222.966 241.25 222 241.25C221.033 241.25 220.25 242.034 220.25 243L223.75 243ZM223.75 289L223.75 243L220.25 243L220.25 289L223.75 289Z" fill="#D290DB" fill-opacity="0.79"/>
<path d="M228.75 247C228.75 246.034 227.966 245.25 227 245.25C226.033 245.25 225.25 246.034 225.25 247L228.75 247ZM228.75 293L228.75 247L225.25 247L225.25 293L228.75 293Z" fill="#D290DB" fill-opacity="0.79"/>
<path d="M233.75 249C233.75 248.034 232.966 247.25 232 247.25C231.033 247.25 230.25 248.034 230.25 249L233.75 249ZM233.75 295L233.75 249L230.25 249L230.25 295L233.75 295Z" fill="#D290DB" fill-opacity="0.79"/>
<path d="M133.75 233C133.75 232.034 132.966 231.25 132 231.25C131.034 231.25 130.25 232.034 130.25 233L133.75 233ZM133.75 267L133.75 233L130.25 233L130.25 267L133.75 267Z" fill="#D290DB" fill-opacity="0.79"/>
<path d="M128.75 235C128.75 234.034 127.966 233.25 127 233.25C126.034 233.25 125.25 234.034 125.25 235L128.75 235ZM128.75 269L128.75 235L125.25 235L125.25 269L128.75 269Z" fill="#D290DB" fill-opacity="0.79"/>
<path d="M123.75 232C123.75 231.034 122.966 230.25 122 230.25C121.034 230.25 120.25 231.034 120.25 232L123.75 232ZM123.75 266L123.75 232L120.25 232L120.25 266L123.75 266Z" fill="#D290DB" fill-opacity="0.79"/>
<path d="M138.75 229C138.75 228.034 137.966 227.25 137 227.25C136.033 227.25 135.25 228.034 135.25 229L138.75 229ZM138.75 272L138.75 229L135.25 229L135.25 272L138.75 272Z" fill="#D290DB" fill-opacity="0.79"/>
<path d="M143.75 222C143.75 221.034 142.966 220.25 142 220.25C141.033 220.25 140.25 221.034 140.25 222L143.75 222ZM143.75 274L143.75 222L140.25 222L140.25 274L143.75 274Z" fill="#D290DB" fill-opacity="0.79"/>
<path d="M148.75 220C148.75 219.034 147.966 218.25 147 218.25C146.033 218.25 145.25 219.034 145.25 220L148.75 220ZM148.75 280L148.75 220L145.25 220L145.25 280L148.75 280Z" fill="#D290DB" fill-opacity="0.79"/>
<path d="M153.75 228C153.75 227.034 152.966 226.25 152 226.25C151.033 226.25 150.25 227.034 150.25 228L153.75 228ZM153.75 289L153.75 228L150.25 228L150.25 289L153.75 289Z" fill="#D290DB" fill-opacity="0.79"/>
<path d="M158.75 235C158.75 234.034 157.966 233.25 157 233.25C156.033 233.25 155.25 234.034 155.25 235L158.75 235ZM158.75 291L158.75 235L155.25 235L155.25 291L158.75 291Z" fill="#D290DB" fill-opacity="0.79"/>
<path d="M163.75 240C163.75 239.034 162.966 238.25 162 238.25C161.033 238.25 160.25 239.034 160.25 240L163.75 240ZM163.75 286L163.75 240L160.25 240L160.25 286L163.75 286Z" fill="#D290DB" fill-opacity="0.79"/>
<path d="M168.75 243C168.75 242.034 167.966 241.25 167 241.25C166.033 241.25 165.25 242.034 165.25 243L168.75 243ZM168.75 289L168.75 243L165.25 243L165.25 289L168.75 289Z" fill="#D290DB" fill-opacity="0.79"/>
<path d="M173.75 244C173.75 243.034 172.966 242.25 172 242.25C171.033 242.25 170.25 243.034 170.25 244L173.75 244ZM173.75 290L173.75 244L170.25 244L170.25 290L173.75 290Z" fill="#D290DB" fill-opacity="0.79"/>
</g>
</g>
<defs>
<filter id="filter0_d_225_2" x="0" y="0" width="312" height="312" filterUnits="userSpaceOnUse" color-interpolation-filters="sRGB">
<feFlood flood-opacity="0" result="BackgroundImageFix"/>
<feColorMatrix in="SourceAlpha" type="matrix" values="0 0 0 0 0 0 0 0 0 0 0 0 0 0 0 0 0 0 127 0" result="hardAlpha"/>
<feMorphology radius="8" operator="dilate" in="SourceAlpha" result="effect1_dropShadow_225_2"/>
<feOffset/>
<feGaussianBlur stdDeviation="26"/>
<feComposite in2="hardAlpha" operator="out"/>
<feColorMatrix type="matrix" values="0 0 0 0 0.822744 0 0 0 0 0.564126 0 0 0 0 0.856901 0 0 0 0.6 0"/>
<feBlend mode="normal" in2="BackgroundImageFix" result="effect1_dropShadow_225_2"/>
<feBlend mode="normal" in="SourceGraphic" in2="effect1_dropShadow_225_2" result="shape"/>
</filter>
<filter id="filter1_f_225_2" x="107.011" y="99.5" width="97.978" height="108.166" filterUnits="userSpaceOnUse" color-interpolation-filters="sRGB">
<feFlood flood-opacity="0" result="BackgroundImageFix"/>
<feBlend mode="normal" in="SourceGraphic" in2="BackgroundImageFix" result="shape"/>
<feGaussianBlur stdDeviation="0.5" result="effect1_foregroundBlur_225_2"/>
</filter>
<filter id="filter2_d_225_2" x="104.011" y="118.479" width="103.978" height="78.8997" filterUnits="userSpaceOnUse" color-interpolation-filters="sRGB">
<feFlood flood-opacity="0" result="BackgroundImageFix"/>
<feColorMatrix in="SourceAlpha" type="matrix" values="0 0 0 0 0 0 0 0 0 0 0 0 0 0 0 0 0 0 127 0" result="hardAlpha"/>
<feOffset dy="4"/>
<feGaussianBlur stdDeviation="2"/>
<feComposite in2="hardAlpha" operator="out"/>
<feColorMatrix type="matrix" values="0 0 0 0 0 0 0 0 0 0 0 0 0 0 0 0 0 0 0.25 0"/>
<feBlend mode="normal" in2="BackgroundImageFix" result="effect1_dropShadow_225_2"/>
<feBlend mode="normal" in="SourceGraphic" in2="effect1_dropShadow_225_2" result="shape"/>
</filter>
<filter id="filter3_f_225_2" x="143.25" y="141.25" width="24.5" height="24.5" filterUnits="userSpaceOnUse" color-interpolation-filters="sRGB">
<feFlood flood-opacity="0" result="BackgroundImageFix"/>
<feBlend mode="normal" in="SourceGraphic" in2="BackgroundImageFix" result="shape"/>
<feGaussianBlur stdDeviation="2.5" result="effect1_foregroundBlur_225_2"/>
</filter>
<filter id="filter4_f_225_2" x="192" y="183" width="14" height="14" filterUnits="userSpaceOnUse" color-interpolation-filters="sRGB">
<feFlood flood-opacity="0" result="BackgroundImageFix"/>
<feBlend mode="normal" in="SourceGraphic" in2="BackgroundImageFix" result="shape"/>
<feGaussianBlur stdDeviation="0.5" result="effect1_foregroundBlur_225_2"/>
</filter>
<filter id="filter5_f_225_2" x="97" y="168" width="14" height="14" filterUnits="userSpaceOnUse" color-interpolation-filters="sRGB">
<feFlood flood-opacity="0" result="BackgroundImageFix"/>
<feBlend mode="normal" in="SourceGraphic" in2="BackgroundImageFix" result="shape"/>
<feGaussianBlur stdDeviation="0.5" result="effect1_foregroundBlur_225_2"/>
</filter>
<filter id="filter6_f_225_2" x="169" y="103" width="14" height="14" filterUnits="userSpaceOnUse" color-interpolation-filters="sRGB">
<feFlood flood-opacity="0" result="BackgroundImageFix"/>
<feBlend mode="normal" in="SourceGraphic" in2="BackgroundImageFix" result="shape"/>
<feGaussianBlur stdDeviation="0.5" result="effect1_foregroundBlur_225_2"/>
</filter>
</defs>
</svg>
