<svg width="230" height="160" viewBox="0 0 230 160" fill="none" xmlns="http://www.w3.org/2000/svg">
<rect width="230" height="160" rx="50" fill="#D9D9D9"/>
<g filter="url(#filter0_d_208_133)">
<path d="M56.5427 63.8C56.0893 64.12 55.436 64.48 54.5827 64.88C53.756 65.28 52.7827 65.6267 51.6627 65.92C50.5427 66.2133 49.3027 66.3467 47.9427 66.32C45.7027 66.2933 43.676 65.8933 41.8627 65.12C40.076 64.3467 38.5427 63.2933 37.2627 61.96C36.0093 60.6 35.0493 59.0533 34.3827 57.32C33.716 55.56 33.3827 53.6933 33.3827 51.72C33.3827 49.56 33.7293 47.56 34.4227 45.72C35.116 43.88 36.1027 42.2933 37.3827 40.96C38.6627 39.6 40.1693 38.5467 41.9027 37.8C43.6627 37.0533 45.596 36.68 47.7027 36.68C49.4627 36.68 51.0493 36.92 52.4627 37.4C53.9027 37.88 55.1293 38.4267 56.1427 39.04L54.4627 42.96C53.6893 42.4267 52.7293 41.92 51.5827 41.44C50.4627 40.9333 49.2093 40.68 47.8227 40.68C46.4627 40.68 45.1693 40.96 43.9427 41.52C42.716 42.0533 41.636 42.8133 40.7027 43.8C39.7693 44.7867 39.036 45.9333 38.5027 47.24C37.9693 48.5467 37.7027 49.9733 37.7027 51.52C37.7027 53.04 37.9427 54.4667 38.4227 55.8C38.9027 57.1067 39.596 58.2533 40.5027 59.24C41.4093 60.2 42.4893 60.96 43.7427 61.52C45.0227 62.0533 46.4493 62.32 48.0227 62.32C49.516 62.32 50.8227 62.0933 51.9427 61.64C53.0893 61.1867 54.036 60.6667 54.7827 60.08L56.5427 63.8ZM71.7961 66.4C70.2228 66.4 68.7961 66.0667 67.5161 65.4C66.2361 64.7333 65.2228 63.76 64.4761 62.48C63.7561 61.1733 63.3961 59.56 63.3961 57.64C63.3961 55.7733 63.7828 54.1733 64.5561 52.84C65.3294 51.48 66.3561 50.44 67.6361 49.72C68.9428 48.9733 70.3694 48.6 71.9161 48.6C73.4894 48.6 74.7961 48.9467 75.8361 49.64C76.8761 50.3067 77.6761 51.1067 78.2361 52.04L77.9961 52.68L78.3961 49.32H82.0761V66H78.0761V61.76L78.5161 62.76C78.3828 62.9733 78.1428 63.28 77.7961 63.68C77.4494 64.08 76.9828 64.4933 76.3961 64.92C75.8361 65.3467 75.1694 65.7067 74.3961 66C73.6228 66.2667 72.7561 66.4 71.7961 66.4ZM72.8761 63.12C73.7561 63.12 74.5428 62.96 75.2361 62.64C75.9561 62.2933 76.5561 61.8267 77.0361 61.24C77.5161 60.6533 77.8628 59.9467 78.0761 59.12V55.72C77.8628 54.9467 77.5028 54.28 76.9961 53.72C76.4894 53.16 75.8628 52.72 75.1161 52.4C74.3961 52.0533 73.6094 51.88 72.7561 51.88C71.7961 51.88 70.9028 52.12 70.0761 52.6C69.2761 53.08 68.6361 53.7333 68.1561 54.56C67.6761 55.3867 67.4361 56.36 67.4361 57.48C67.4361 58.52 67.6761 59.4667 68.1561 60.32C68.6628 61.1733 69.3294 61.8533 70.1561 62.36C71.0094 62.8667 71.9161 63.12 72.8761 63.12ZM94.8289 49.32L95.2289 54.12L95.0289 53.44C95.4822 52.4267 96.1089 51.56 96.9089 50.84C97.7356 50.12 98.5889 49.5733 99.4689 49.2C100.376 48.8 101.149 48.6 101.789 48.6L101.589 52.6C100.309 52.52 99.1889 52.76 98.2289 53.32C97.2956 53.88 96.5622 54.6267 96.0289 55.56C95.4956 56.4933 95.2289 57.4933 95.2289 58.56V66H91.2289V49.32H94.8289ZM108.263 55.56H115.703V59.08H108.263V55.56ZM132.772 37C135.705 37 138.012 37.6 139.692 38.8C141.398 40 142.252 41.84 142.252 44.32C142.252 45.8933 141.892 47.2533 141.172 48.4C140.452 49.52 139.452 50.4 138.172 51.04C136.892 51.68 135.385 52.04 133.652 52.12L133.012 49.92C135.038 49.9467 136.852 50.2933 138.452 50.96C140.052 51.6 141.318 52.5067 142.252 53.68C143.185 54.8267 143.652 56.2 143.652 57.8C143.652 59.2667 143.385 60.52 142.852 61.56C142.318 62.6 141.585 63.4533 140.652 64.12C139.745 64.76 138.705 65.24 137.532 65.56C136.385 65.8533 135.185 66 133.932 66H125.172V37H132.772ZM133.572 49.56C135.092 49.56 136.198 49.1333 136.892 48.28C137.585 47.4267 137.932 46.4 137.932 45.2C137.932 43.7333 137.478 42.6667 136.572 42C135.692 41.3333 134.492 41 132.972 41H129.332V49.56H133.572ZM133.732 62.12C134.772 62.12 135.718 61.9733 136.572 61.68C137.425 61.36 138.105 60.88 138.612 60.24C139.118 59.6 139.372 58.8 139.372 57.84C139.372 56.7467 139.078 55.8933 138.492 55.28C137.905 54.6667 137.158 54.24 136.252 54C135.345 53.7333 134.412 53.6 133.452 53.6H129.332V62.12H133.732ZM148.774 67.82H174.774V41.82H148.774V67.82ZM183.394 49.32L183.714 53.2L183.554 52.64C184.114 51.4133 184.98 50.44 186.154 49.72C187.327 49 188.714 48.64 190.314 48.64C191.887 48.64 193.18 49.1067 194.194 50.04C195.234 50.9467 195.767 52.1467 195.794 53.64V66H191.754V55.04C191.727 54.16 191.474 53.4533 190.994 52.92C190.514 52.36 189.754 52.08 188.714 52.08C187.78 52.08 186.94 52.3467 186.194 52.88C185.447 53.4133 184.86 54.1467 184.434 55.08C184.007 56.0133 183.794 57.0933 183.794 58.32V66H179.754V49.32H183.394ZM51.01 125V95.04H51.05L66.37 116.84L64.61 116.44L79.93 95.04H79.97V125H75.85V104.48L76.13 106.6L65.37 121.84H65.29L54.33 106.6L55.01 104.64V125H51.01ZM86.8775 126.82H112.877V100.82H86.8775V126.82ZM121.498 108.32L121.818 112.2L121.658 111.64C122.218 110.413 123.084 109.44 124.258 108.72C125.431 108 126.818 107.64 128.418 107.64C129.991 107.64 131.284 108.107 132.298 109.04C133.338 109.947 133.871 111.147 133.898 112.64V125H129.858V114.04C129.831 113.16 129.578 112.453 129.098 111.92C128.618 111.36 127.858 111.08 126.818 111.08C125.884 111.08 125.044 111.347 124.298 111.88C123.551 112.413 122.964 113.147 122.538 114.08C122.111 115.013 121.898 116.093 121.898 117.32V125H117.858V108.32H121.498ZM141.601 116.48C141.601 114.8 141.988 113.293 142.761 111.96C143.561 110.6 144.668 109.533 146.081 108.76C147.495 107.987 149.108 107.6 150.921 107.6C152.735 107.6 154.321 107.987 155.681 108.76C157.068 109.533 158.135 110.6 158.881 111.96C159.655 113.293 160.041 114.8 160.041 116.48C160.041 118.16 159.655 119.68 158.881 121.04C158.135 122.373 157.068 123.44 155.681 124.24C154.321 125.013 152.708 125.4 150.841 125.4C149.081 125.4 147.495 125.04 146.081 124.32C144.695 123.6 143.601 122.573 142.801 121.24C142.001 119.88 141.601 118.293 141.601 116.48ZM145.601 116.52C145.601 117.56 145.828 118.507 146.281 119.36C146.761 120.213 147.388 120.893 148.161 121.4C148.961 121.88 149.841 122.12 150.801 122.12C151.815 122.12 152.708 121.88 153.481 121.4C154.281 120.893 154.895 120.213 155.321 119.36C155.775 118.507 156.001 117.56 156.001 116.52C156.001 115.48 155.775 114.533 155.321 113.68C154.895 112.827 154.281 112.16 153.481 111.68C152.708 111.173 151.815 110.92 150.801 110.92C149.815 110.92 148.921 111.173 148.121 111.68C147.348 112.187 146.735 112.867 146.281 113.72C145.828 114.573 145.601 115.507 145.601 116.52ZM173.845 114.36L177.725 108.32H181.725L175.285 117.28L173.845 114.36ZM182.445 125H177.605L164.885 108.32H169.805L182.445 125ZM173.405 118.92L169.125 125H165.085L171.485 116.24L173.405 118.92Z" fill="#1E1E1E"/>
<path d="M31.0627 56.92H148.772V58.92H31.0627V56.92ZM176.594 56.92H198.954V58.92H176.594V56.92ZM46.89 115.92H86.89V117.92H46.89V115.92ZM114.698 115.92H183.125V117.92H114.698V115.92Z" fill="#1E1E1E"/>
<path d="M148.774 69.25H176.594V70.55H148.774V69.25ZM86.8775 128.25H114.698V129.55H86.8775V128.25Z" fill="#1E1E1E"/>
</g>
<defs>
<filter id="filter0_d_208_133" x="31.0627" y="33.58" width="180.991" height="103.07" filterUnits="userSpaceOnUse" color-interpolation-filters="sRGB">
<feFlood flood-opacity="0" result="BackgroundImageFix"/>
<feColorMatrix in="SourceAlpha" type="matrix" values="0 0 0 0 0 0 0 0 0 0 0 0 0 0 0 0 0 0 127 0" result="hardAlpha"/>
<feOffset dx="8" dy="2"/>
<feGaussianBlur stdDeviation="2.55"/>
<feComposite in2="hardAlpha" operator="out"/>
<feColorMatrix type="matrix" values="0 0 0 0 0 0 0 0 0 0 0 0 0 0 0 0 0 0 0.25 0"/>
<feBlend mode="normal" in2="BackgroundImageFix" result="effect1_dropShadow_208_133"/>
<feBlend mode="normal" in="SourceGraphic" in2="effect1_dropShadow_208_133" result="shape"/>
</filter>
</defs>
</svg>
